<svg width="24" height="24" viewBox="0 0 24 24" fill="none" xmlns="http://www.w3.org/2000/svg">
<g clip-path="url(#clip0_14_66)">
<path d="M21.5533 3.99994C21.4625 3.99058 21.3709 3.99058 21.28 3.99994H2.61334C2.49371 4.00179 2.37486 4.01972 2.26001 4.05328L11.8933 13.6466L21.5533 3.99994Z" fill="white"/>
<path d="M22.54 4.92664L12.8333 14.5933C12.5835 14.8416 12.2456 14.981 11.8933 14.981C11.5411 14.981 11.2031 14.8416 10.9533 14.5933L1.33332 4.99997C1.30374 5.10866 1.28806 5.22067 1.28665 5.3333V18.6666C1.28665 19.0203 1.42713 19.3594 1.67718 19.6094C1.92722 19.8595 2.26636 20 2.61998 20H21.2867C21.6403 20 21.9794 19.8595 22.2295 19.6094C22.4795 19.3594 22.62 19.0203 22.62 18.6666V5.3333C22.6147 5.19441 22.5877 5.05719 22.54 4.92664ZM3.53332 18.6666H2.60665V17.7133L7.45332 12.9066L8.39332 13.8466L3.53332 18.6666ZM21.2733 18.6666H20.34L15.48 13.8466L16.42 12.9066L21.2667 17.7133L21.2733 18.6666Z" fill="white"/>
</g>
<defs>
<clipPath id="clip0_14_66">
<rect width="24" height="24" rx="12" fill="white"/>
</clipPath>
</defs>
</svg>
