<svg width="24" height="24" viewBox="0 0 24 24" fill="none" xmlns="http://www.w3.org/2000/svg">
<path fill-rule="evenodd" clip-rule="evenodd" d="M20.5664 4.56663C20.6408 4.49225 20.6998 4.40395 20.74 4.30676C20.7803 4.20958 20.801 4.10542 20.801 4.00023C20.801 3.89504 20.7803 3.79088 20.74 3.6937C20.6998 3.59651 20.6408 3.50821 20.5664 3.43383C20.492 3.35945 20.4037 3.30045 20.3065 3.26019C20.2093 3.21994 20.1052 3.19922 20 3.19922C19.8948 3.19922 19.7906 3.21994 19.6935 3.26019C19.5963 3.30045 19.508 3.35945 19.4336 3.43383L12 10.869L4.56639 3.43383C4.492 3.35945 4.4037 3.30045 4.30652 3.26019C4.20934 3.21994 4.10518 3.19922 3.99999 3.19922C3.89479 3.19922 3.79063 3.21994 3.69345 3.26019C3.59627 3.30045 3.50797 3.35945 3.43358 3.43383C3.3592 3.50821 3.3002 3.59651 3.25995 3.6937C3.21969 3.79088 3.19897 3.89504 3.19897 4.00023C3.19897 4.10542 3.21969 4.20958 3.25995 4.30676C3.3002 4.40395 3.3592 4.49225 3.43358 4.56663L10.8688 12.0002L3.43358 19.4338C3.28337 19.584 3.19897 19.7878 3.19897 20.0002C3.19897 20.2127 3.28337 20.4164 3.43358 20.5666C3.5838 20.7168 3.78754 20.8012 3.99999 20.8012C4.21243 20.8012 4.41617 20.7168 4.56639 20.5666L12 13.1314L19.4336 20.5666C19.5838 20.7168 19.7875 20.8012 20 20.8012C20.2124 20.8012 20.4162 20.7168 20.5664 20.5666C20.7166 20.4164 20.801 20.2127 20.801 20.0002C20.801 19.7878 20.7166 19.584 20.5664 19.4338L13.1312 12.0002L20.5664 4.56663Z" fill="white"/>
</svg>
