<svg width="24" height="24" viewBox="0 0 24 24" fill="none" xmlns="http://www.w3.org/2000/svg">
<g clip-path="url(#clip0_18_373)">
<mask id="mask0_18_373" style="mask-type:luminance" maskUnits="userSpaceOnUse" x="0" y="0" width="24" height="24">
<path d="M0 0H24V24H0V0Z" fill="white"/>
<path fill-rule="evenodd" clip-rule="evenodd" d="M4.61536 10.1538C4.61536 9.90902 4.71261 9.67423 4.88572 9.50112C5.05883 9.32801 5.29362 9.23076 5.53843 9.23076H15.0535C15.2983 9.23076 15.5331 9.32801 15.7062 9.50112C15.8793 9.67423 15.9766 9.90902 15.9766 10.1538C15.9766 10.3987 15.8793 10.6334 15.7062 10.8066C15.5331 10.9797 15.2983 11.0769 15.0535 11.0769H5.53843C5.29362 11.0769 5.05883 10.9797 4.88572 10.8066C4.71261 10.6334 4.61536 10.3987 4.61536 10.1538ZM4.61536 6.46153C4.61536 6.21671 4.71261 5.98193 4.88572 5.80882C5.05883 5.6357 5.29362 5.53845 5.53843 5.53845H18.4615C18.7063 5.53845 18.9411 5.6357 19.1142 5.80882C19.2873 5.98193 19.3846 6.21671 19.3846 6.46153C19.3846 6.70634 19.2873 6.94113 19.1142 7.11424C18.9411 7.28735 18.7063 7.38461 18.4615 7.38461H5.53843C5.29362 7.38461 5.05883 7.28735 4.88572 7.11424C4.71261 6.94113 4.61536 6.70634 4.61536 6.46153ZM4.61536 13.8461C4.61536 13.6013 4.71261 13.3665 4.88572 13.1934C5.05883 13.0203 5.29362 12.9231 5.53843 12.9231H18.4615C18.7063 12.9231 18.9411 13.0203 19.1142 13.1934C19.2873 13.3665 19.3846 13.6013 19.3846 13.8461C19.3846 14.091 19.2873 14.3257 19.1142 14.4989C18.9411 14.672 18.7063 14.7692 18.4615 14.7692H5.53843C5.29362 14.7692 5.05883 14.672 4.88572 14.4989C4.71261 14.3257 4.61536 14.091 4.61536 13.8461ZM4.61536 17.5385C4.61536 17.2936 4.71261 17.0588 4.88572 16.8857C5.05883 16.7126 5.29362 16.6154 5.53843 16.6154H15.0535C15.2983 16.6154 15.5331 16.7126 15.7062 16.8857C15.8793 17.0588 15.9766 17.2936 15.9766 17.5385C15.9766 17.7833 15.8793 18.0181 15.7062 18.1912C15.5331 18.3643 15.2983 18.4615 15.0535 18.4615H5.53843C5.29362 18.4615 5.05883 18.3643 4.88572 18.1912C4.71261 18.0181 4.61536 17.7833 4.61536 17.5385Z" fill="black"/>
</mask>
<g mask="url(#mask0_18_373)">
<path d="M12 24C18.6274 24 24 18.6274 24 12C24 5.37258 18.6274 0 12 0C5.37258 0 0 5.37258 0 12C0 18.6274 5.37258 24 12 24Z" fill="black"/>
</g>
</g>
<defs>
<clipPath id="clip0_18_373">
<rect width="24" height="24" fill="white"/>
</clipPath>
</defs>
</svg>
