<svg width="24" height="24" viewBox="0 0 24 24" fill="none" xmlns="http://www.w3.org/2000/svg">
<path fill-rule="evenodd" clip-rule="evenodd" d="M3.5 5C3.23478 5 2.98043 5.10536 2.79289 5.29289C2.60536 5.48043 2.5 5.73478 2.5 6C2.5 6.26522 2.60536 6.51957 2.79289 6.70711C2.98043 6.89464 3.23478 7 3.5 7H20.5C20.7652 7 21.0196 6.89464 21.2071 6.70711C21.3946 6.51957 21.5 6.26522 21.5 6C21.5 5.73478 21.3946 5.48043 21.2071 5.29289C21.0196 5.10536 20.7652 5 20.5 5H3.5ZM2.5 12C2.5 11.7348 2.60536 11.4804 2.79289 11.2929C2.98043 11.1054 3.23478 11 3.5 11H20.5C20.7652 11 21.0196 11.1054 21.2071 11.2929C21.3946 11.4804 21.5 11.7348 21.5 12C21.5 12.2652 21.3946 12.5196 21.2071 12.7071C21.0196 12.8946 20.7652 13 20.5 13H3.5C3.23478 13 2.98043 12.8946 2.79289 12.7071C2.60536 12.5196 2.5 12.2652 2.5 12ZM2.5 18.001C2.5 17.7358 2.60536 17.4814 2.79289 17.2939C2.98043 17.1064 3.23478 17.001 3.5 17.001H20.5C20.7652 17.001 21.0196 17.1064 21.2071 17.2939C21.3946 17.4814 21.5 17.7358 21.5 18.001C21.5 18.2662 21.3946 18.5206 21.2071 18.7081C21.0196 18.8956 20.7652 19.001 20.5 19.001H3.5C3.23478 19.001 2.98043 18.8956 2.79289 18.7081C2.60536 18.5206 2.5 18.2662 2.5 18.001Z" fill="#F8F8F8"/>
</svg>
